<?xml version="1.0" standalone="no"?>
<svg xmlns:xlink="http://www.w3.org/1999/xlink" id="wave" style="transform:rotate(180deg); transition: 0.3s" viewBox="0 0 1440 250" version="1.1" xmlns="http://www.w3.org/2000/svg"><defs><linearGradient id="sw-gradient-0" x1="0" x2="0" y1="1" y2="0"><stop stop-color="rgba(255, 249, 234, 1)" offset="0%"/><stop stop-color="rgba(255, 249, 234, 1)" offset="100%"/></linearGradient></defs><path style="transform:translate(0, 0px); opacity:1" fill="url(#sw-gradient-0)" d="M0,75L40,100C80,125,160,175,240,187.5C320,200,400,175,480,170.8C560,167,640,183,720,191.7C800,200,880,200,960,195.8C1040,192,1120,183,1200,175C1280,167,1360,158,1440,166.7C1520,175,1600,200,1680,191.7C1760,183,1840,142,1920,137.5C2000,133,2080,167,2160,175C2240,183,2320,167,2400,162.5C2480,158,2560,167,2640,179.2C2720,192,2800,208,2880,187.5C2960,167,3040,108,3120,75C3200,42,3280,33,3360,33.3C3440,33,3520,42,3600,54.2C3680,67,3760,83,3840,95.8C3920,108,4000,117,4080,120.8C4160,125,4240,125,4320,133.3C4400,142,4480,158,4560,166.7C4640,175,4720,175,4800,154.2C4880,133,4960,92,5040,87.5C5120,83,5200,117,5280,116.7C5360,117,5440,83,5520,75C5600,67,5680,83,5720,91.7L5760,100L5760,250L5720,250C5680,250,5600,250,5520,250C5440,250,5360,250,5280,250C5200,250,5120,250,5040,250C4960,250,4880,250,4800,250C4720,250,4640,250,4560,250C4480,250,4400,250,4320,250C4240,250,4160,250,4080,250C4000,250,3920,250,3840,250C3760,250,3680,250,3600,250C3520,250,3440,250,3360,250C3280,250,3200,250,3120,250C3040,250,2960,250,2880,250C2800,250,2720,250,2640,250C2560,250,2480,250,2400,250C2320,250,2240,250,2160,250C2080,250,2000,250,1920,250C1840,250,1760,250,1680,250C1600,250,1520,250,1440,250C1360,250,1280,250,1200,250C1120,250,1040,250,960,250C880,250,800,250,720,250C640,250,560,250,480,250C400,250,320,250,240,250C160,250,80,250,40,250L0,250Z"/></svg>